<svg width="96" height="23" viewBox="0 0 96 23" fill="none" xmlns="http://www.w3.org/2000/svg">
<path d="M16.4077 6.128C16.0077 6.128 15.5757 6.24 15.1117 6.464C14.6477 6.688 14.1997 7.032 13.7677 7.496C13.3517 7.96 12.9677 8.552 12.6157 9.272C12.2797 9.992 12.0237 10.848 11.8477 11.84L10.9357 17H8.77566L10.1437 9.536C10.2237 9.152 10.2717 8.872 10.2877 8.696C10.3037 8.52 10.3117 8.344 10.3117 8.168C10.3117 7.544 10.1277 7.048 9.75966 6.68C9.40766 6.312 8.94366 6.128 8.36766 6.128C7.95166 6.128 7.51166 6.248 7.04766 6.488C6.58366 6.712 6.13566 7.064 5.70366 7.544C5.27166 8.024 4.87966 8.64 4.52766 9.392C4.19166 10.128 3.93566 11.008 3.75966 12.032L2.89566 17H0.735656L2.91966 4.52H5.00766L4.47966 7.4C4.95966 6.44 5.60766 5.672 6.42366 5.096C7.23966 4.52 8.09566 4.232 8.99166 4.232C9.48766 4.232 9.93566 4.312 10.3357 4.472C10.7357 4.632 11.0797 4.856 11.3677 5.144C11.6717 5.416 11.9117 5.752 12.0877 6.152C12.2637 6.536 12.3757 6.952 12.4237 7.4C12.9677 6.392 13.6317 5.616 14.4157 5.072C15.2157 4.512 16.0797 4.232 17.0077 4.232C17.5357 4.232 18.0157 4.32 18.4477 4.496C18.8797 4.672 19.2477 4.92 19.5517 5.24C19.8557 5.544 20.0877 5.904 20.2477 6.32C20.4237 6.736 20.5117 7.184 20.5117 7.664C20.5117 8.08 20.4637 8.584 20.3677 9.176L18.9757 17H16.8157L18.1837 9.536C18.2637 9.152 18.3117 8.872 18.3277 8.696C18.3437 8.52 18.3517 8.344 18.3517 8.168C18.3517 7.544 18.1677 7.048 17.7997 6.68C17.4477 6.312 16.9837 6.128 16.4077 6.128ZM27.1617 15.08C27.6097 15.08 28.0577 14.976 28.5057 14.768C28.9537 14.544 29.3697 14.224 29.7537 13.808C30.1537 13.392 30.4977 12.88 30.7857 12.272C31.0737 11.664 31.2897 10.968 31.4337 10.184L32.4177 4.52H34.5777L32.3937 17.144C32.2017 18.248 31.9057 19.144 31.5057 19.832C31.1057 20.536 30.6497 21.088 30.1377 21.488C29.6257 21.904 29.0817 22.184 28.5057 22.328C27.9297 22.488 27.3617 22.568 26.8017 22.568C25.7137 22.568 24.7857 22.344 24.0177 21.896C23.2657 21.464 22.6497 20.944 22.1697 20.336L23.8497 19.088C24.6337 20.16 25.6657 20.696 26.9457 20.696C27.7457 20.696 28.4497 20.4 29.0577 19.808C29.6657 19.216 30.0977 18.208 30.3537 16.784L30.8097 14.24C30.3297 15.008 29.7217 15.664 28.9857 16.208C28.2497 16.736 27.4017 17 26.4417 17C25.9617 17 25.5137 16.92 25.0977 16.76C24.6817 16.6 24.3137 16.368 23.9937 16.064C23.6737 15.76 23.4177 15.392 23.2257 14.96C23.0497 14.528 22.9617 14.04 22.9617 13.496C22.9617 13.32 22.9697 13.12 22.9857 12.896C23.0017 12.672 23.0257 12.432 23.0577 12.176L24.3537 4.52H26.5137L25.1937 12.128C25.1457 12.416 25.1217 12.688 25.1217 12.944C25.1217 13.664 25.3217 14.2 25.7217 14.552C26.1217 14.904 26.6017 15.08 27.1617 15.08Z" fill="#E63946"/>
<path d="M37.3748 0.248C37.9348 0.184 38.6228 0.127999 39.4388 0.079999C40.2708 0.0319996 41.2308 0.0079999 42.3188 0.0079999C44.3828 0.0079999 45.9588 0.392 47.0468 1.16C48.1508 1.928 48.7028 2.984 48.7028 4.328C48.7028 5.224 48.4708 5.976 48.0068 6.584C47.5428 7.192 46.8548 7.696 45.9428 8.096C47.0308 8.48 47.8548 9.008 48.4148 9.68C48.9748 10.352 49.2548 11.192 49.2548 12.2C49.2548 13.736 48.6548 14.952 47.4548 15.848C46.2708 16.744 44.5268 17.192 42.2228 17.192C41.2468 17.192 40.3188 17.168 39.4388 17.12C38.5748 17.088 37.8868 17.032 37.3748 16.952V0.248ZM42.3908 15.296C43.8308 15.296 44.9428 15.04 45.7268 14.528C46.5268 14.016 46.9268 13.272 46.9268 12.296C46.9268 11.336 46.5348 10.584 45.7508 10.04C44.9668 9.496 43.8468 9.224 42.3908 9.224H39.6548V15.152C40.4868 15.248 41.3988 15.296 42.3908 15.296ZM42.2948 7.448C43.5588 7.448 44.5588 7.192 45.2948 6.68C46.0468 6.152 46.4228 5.464 46.4228 4.616C46.4228 3.704 46.0548 3.016 45.3188 2.552C44.5828 2.088 43.5748 1.856 42.2948 1.856C41.7668 1.856 41.2868 1.872 40.8548 1.904C40.4228 1.92 40.0228 1.944 39.6548 1.976V7.448H42.2948ZM59.02 6.608C58.716 6.48 58.356 6.416 57.94 6.416C57.492 6.416 57.052 6.512 56.62 6.704C56.204 6.896 55.828 7.184 55.492 7.568C55.172 7.952 54.908 8.448 54.7 9.056C54.508 9.648 54.412 10.352 54.412 11.168V17H52.252V4.52H54.34V7.232C54.484 6.848 54.676 6.472 54.916 6.104C55.156 5.736 55.436 5.416 55.756 5.144C56.092 4.872 56.476 4.656 56.908 4.496C57.34 4.32 57.82 4.232 58.348 4.232C58.588 4.232 58.82 4.248 59.044 4.28C59.284 4.296 59.492 4.328 59.668 4.376L59.02 6.608ZM60.2714 10.832C60.2714 9.904 60.4154 9.04 60.7034 8.24C60.9914 7.424 61.3914 6.72 61.9034 6.128C62.4314 5.536 63.0554 5.072 63.7754 4.736C64.5114 4.4 65.3114 4.232 66.1754 4.232C66.8954 4.232 67.5434 4.36 68.1194 4.616C68.7114 4.856 69.2234 5.16 69.6554 5.528V4.52H71.6234V13.976C71.6234 14.584 71.7674 14.984 72.0554 15.176C72.3594 15.352 72.6874 15.44 73.0394 15.44L72.5834 17.12C71.0474 17.12 70.1194 16.496 69.7994 15.248C69.6074 15.504 69.3834 15.76 69.1274 16.016C68.8874 16.256 68.6074 16.472 68.2874 16.664C67.9674 16.856 67.6074 17.008 67.2074 17.12C66.8074 17.232 66.3674 17.288 65.8874 17.288C65.1034 17.288 64.3674 17.136 63.6794 16.832C63.0074 16.528 62.4154 16.096 61.9034 15.536C61.4074 14.976 61.0074 14.304 60.7034 13.52C60.4154 12.72 60.2714 11.824 60.2714 10.832ZM66.3674 15.368C66.9754 15.368 67.5514 15.224 68.0954 14.936C68.6394 14.648 69.0954 14.272 69.4634 13.808V7.112C69.0314 6.808 68.5514 6.568 68.0234 6.392C67.5114 6.2 66.9674 6.104 66.3914 6.104C65.8154 6.104 65.2874 6.216 64.8074 6.44C64.3274 6.664 63.9114 6.984 63.5594 7.4C63.2234 7.8 62.9594 8.288 62.7674 8.864C62.5754 9.44 62.4794 10.072 62.4794 10.76C62.4794 11.432 62.5754 12.056 62.7674 12.632C62.9594 13.192 63.2314 13.68 63.5834 14.096C63.9354 14.496 64.3434 14.808 64.8074 15.032C65.2874 15.256 65.8074 15.368 66.3674 15.368ZM82.6919 6.608C82.3879 6.48 82.0279 6.416 81.6119 6.416C81.1639 6.416 80.7239 6.512 80.2919 6.704C79.8759 6.896 79.4999 7.184 79.1639 7.568C78.8439 7.952 78.5799 8.448 78.3719 9.056C78.1799 9.648 78.0839 10.352 78.0839 11.168V17H75.9239V4.52H78.0119V7.232C78.1559 6.848 78.3479 6.472 78.5879 6.104C78.8279 5.736 79.1079 5.416 79.4279 5.144C79.7639 4.872 80.1479 4.656 80.5799 4.496C81.0119 4.32 81.4919 4.232 82.0199 4.232C82.2599 4.232 82.4919 4.248 82.7159 4.28C82.9559 4.296 83.1639 4.328 83.3399 4.376L82.6919 6.608ZM85.8218 22.568C85.3418 22.568 84.9178 22.52 84.5498 22.424C84.1978 22.328 83.9178 22.216 83.7098 22.088L84.1898 20.288C84.3818 20.4 84.6138 20.496 84.8858 20.576C85.1738 20.656 85.5018 20.696 85.8698 20.696C86.2058 20.696 86.5178 20.648 86.8058 20.552C87.1098 20.456 87.3978 20.288 87.6698 20.048C87.9418 19.808 88.1978 19.48 88.4378 19.064C88.6938 18.648 88.9418 18.128 89.1818 17.504L89.7338 16.064H88.5818L83.7098 5.096L85.6298 4.232L90.2858 14.624L93.9098 4.328L95.9018 5.096L91.3178 17.624C90.9658 18.584 90.5898 19.376 90.1898 20C89.8058 20.64 89.3898 21.152 88.9418 21.536C88.4938 21.92 88.0058 22.184 87.4778 22.328C86.9658 22.488 86.4138 22.568 85.8218 22.568Z" fill="#1D3557"/>
</svg>
